HIERARCHY
ROOT Hips
{
	OFFSET -3.958830 18.904000 13.208200
	CHANNELS 6 Xposition Yposition Zposition Zrotation Yrotation Xrotation 
	JOINT LHipJoint
	{
		OFFSET 0.000000 0.000000 0.000000
		CHANNELS 3 Zrotation Yrotation Xrotation
		JOINT LeftUpLeg
		{
			OFFSET 1.800000 -1.400000 0.085000
			CHANNELS 3 Zrotation Yrotation Xrotation
			JOINT LeftLeg
			{
				OFFSET 2.215000 -6.000000 0.000000
				CHANNELS 3 Zrotation Yrotation Xrotation
				JOINT LeftFoot
				{
					OFFSET 2.500000 -6.900000 0.000000
					CHANNELS 3 Zrotation Yrotation Xrotation
					JOINT LeftToeBase
					{
						OFFSET 0.200000 -0.500000 1.950000
						CHANNELS 3 Zrotation Yrotation Xrotation
						End Site
						{
							OFFSET 0.000000 0.000000 0.000000
						}
					}
				}
			}
		}
	}
	JOINT RHipJoint
	{
		OFFSET 0.000000 0.000000 0.000000
		CHANNELS 3 Zrotation Yrotation Xrotation
		JOINT RightUpLeg
		{
			OFFSET -1.800000 -1.400000 0.085000
			CHANNELS 3 Zrotation Yrotation Xrotation
			JOINT RightLeg
			{
				OFFSET -2.215000 -6.000000 0.000000
				CHANNELS 3 Zrotation Yrotation Xrotation
				JOINT RightFoot
				{
					OFFSET -2.500000 -6.900000 0.000000
					CHANNELS 3 Zrotation Yrotation Xrotation
					JOINT RightToeBase
					{
						OFFSET -0.200000 -0.500000 1.950000
						CHANNELS 3 Zrotation Yrotation Xrotation
						End Site
						{
							OFFSET 0.000000 0.000000 0.000000
						}
					}
				}
			}
		}
	}
	JOINT LowerBack
	{
		OFFSET 0.000000 0.000000 0.000000
		CHANNELS 3 Zrotation Yrotation Xrotation
		JOINT Spine
		{
			OFFSET -0.087000 1.940000 -0.288900
			CHANNELS 3 Zrotation Yrotation Xrotation
			JOINT Spine1
			{
				OFFSET 0.000000 1.950000 0.060000
				CHANNELS 3 Zrotation Yrotation Xrotation
				JOINT Neck
				{
					OFFSET 0.000000 0.000000 0.000000
					CHANNELS 3 Zrotation Yrotation Xrotation
					JOINT Neck1
					{
						OFFSET 0.000000 1.600000 0.340000
						CHANNELS 3 Zrotation Yrotation Xrotation
						JOINT Head
						{
							OFFSET 0.000000 1.667000 -0.240000
							CHANNELS 3 Zrotation Yrotation Xrotation
							End Site
							{
								OFFSET 0.000000 0.000000 0.000000
							}
						}
					}
				}
				JOINT LeftShoulder
				{
					OFFSET 0.000000 0.000000 0.000000
					CHANNELS 3 Zrotation Yrotation Xrotation
					JOINT LeftArm
					{
						OFFSET 2.700000 1.550000 -0.730000
						CHANNELS 3 Zrotation Yrotation Xrotation
						JOINT LeftForeArm
						{
							OFFSET 5.450000 0.000000 0.000000
							CHANNELS 3 Zrotation Yrotation Xrotation
							JOINT LeftHand
							{
								OFFSET 3.450000 0.000000 0.000000
								CHANNELS 3 Zrotation Yrotation Xrotation
								JOINT LeftHandIndex1
								{
									OFFSET 0.750000 0.000000 0.000000
									CHANNELS 3 Zrotation Yrotation Xrotation
									End Site
									{
										OFFSET 0.000000 0.000000 0.000000
									}
								}
							}
						}
					}
				}
				JOINT RightShoulder
				{
					OFFSET 0.000000 0.000000 0.000000
					CHANNELS 3 Zrotation Yrotation Xrotation
					JOINT RightArm
					{
						OFFSET -2.700000 1.550000 -0.730000
						CHANNELS 3 Zrotation Yrotation Xrotation
						JOINT RightForeArm
						{
							OFFSET -5.450000 0.000000 0.000000
							CHANNELS 3 Zrotation Yrotation Xrotation
							JOINT RightHand
							{
								OFFSET -3.450000 0.000000 0.000000
								CHANNELS 3 Zrotation Yrotation Xrotation
								JOINT RightHandIndex1
								{
									OFFSET -0.750000 0.000000 0.000000
									CHANNELS 3 Zrotation Yrotation Xrotation
									End Site
									{
										OFFSET 0.000000 0.000000 0.000000
									}
								}
							}
						}
					}
				}
			}
		}
	}
}
MOTION
Frames: 13
Frame Time: 0.016667
-0.308170 17.505050 -4.543640 -2.882998 14.543473 -0.115369 -15.346671 13.297898 3.163830 0.320197 -2.746186 -21.707217 -4.966105 9.987726 38.891883 -0.126369 6.795925 1.869320 1.050350 0.762770 0.832920 18.142317 -9.009497 4.801973 7.439429 11.130754 -36.099713 4.737676 -0.964041 -1.451921 -0.312079 -0.278615 4.055242 0.342410 -0.401810 0.234010 -3.372099 -3.338188 -9.143664 11.461509 -2.287611 34.626790 0.033899 2.388884 7.908319 2.232924 -3.829746 -18.224719 -16.024506 1.680641 58.342276 10.068250 -5.402010 -34.374200 -28.820510 -36.421524 6.070780 -57.363832 -39.296121 3.496257 -38.920727 -30.590172 6.487172 -2.897841 3.377651 1.055560 -0.563360 0.606880 0.192490 25.433939 40.933184 12.177753 45.296204 25.206542 -11.284813 32.629378 39.500685 5.741653 1.946996 -1.481450 0.061890 0.251150 -0.270320 -0.252200 
-0.328210 17.506950 -4.562270 -3.059830 15.098440 0.044668 -15.353260 13.236859 3.266760 0.675581 -3.521417 -22.372122 -5.121022 9.806550 39.320128 -0.135996 6.849113 1.856391 1.028960 0.750190 0.829630 18.140496 -8.990891 4.766645 7.924319 10.810400 -36.596244 5.068837 -1.143710 -0.537098 -0.304713 -0.244297 4.083896 0.334900 -0.389620 0.215250 -3.365062 -3.362959 -9.160848 11.486268 -2.574215 35.070065 0.068694 2.262185 7.922050 2.228591 -3.661966 -18.430563 -15.621065 1.574220 58.214065 9.936030 -4.985090 -34.875730 -28.737641 -36.613622 6.663287 -56.803472 -38.793708 3.264768 -34.802552 -31.572614 5.773800 -2.894383 3.298364 1.067930 -0.557440 0.607950 0.185140 25.347781 41.013072 11.951187 46.218269 24.881528 -11.723922 30.802266 37.896296 4.721440 1.945445 -1.428151 0.041040 0.285290 -0.260660 -0.259560 
-0.349540 17.532320 -4.588020 -3.543628 16.016142 0.253138 -15.350312 13.226647 3.300081 0.847215 -3.852872 -23.149957 -4.458273 9.266253 39.224259 -0.206206 6.710677 1.898473 1.000410 0.714790 0.844790 18.146650 -8.959179 4.818718 8.598506 11.107313 -37.468179 4.902022 -1.421974 2.069423 -0.299328 -0.165254 4.116565 0.313190 -0.403420 0.195650 -3.393772 -3.384600 -9.161812 12.226499 -3.299650 35.861126 -0.504604 2.163904 6.519967 2.689738 -3.249939 -18.643270 -14.930112 1.710451 60.433961 8.986370 -4.619330 -35.364300 -29.018371 -36.370709 6.760154 -57.430477 -36.039413 1.589548 -34.717888 -30.487735 5.079305 -2.888864 3.221082 1.116190 -0.570530 0.628370 0.160340 24.662541 40.769016 11.726151 48.979234 23.850952 -12.058811 28.242691 35.681335 3.452489 1.969161 -1.341400 0.010990 0.320640 -0.242090 -0.286640 
-0.377780 17.557730 -4.616900 -3.425592 17.091983 0.890708 -15.344596 13.160533 3.358972 0.290848 -4.345960 -23.931819 -3.710617 8.639790 38.994138 -0.274054 6.524411 1.948985 0.977310 0.673910 0.867740 18.160587 -8.935614 4.870442 8.436942 11.350357 -39.095982 5.028022 -1.799590 5.837791 -0.296952 -0.183284 4.084892 0.291780 -0.421320 0.202270 -3.438553 -3.328377 -9.159531 12.105141 -3.894468 36.415379 -1.260195 1.823993 4.811559 2.797339 -2.350785 -18.265761 -12.965839 1.448327 62.115772 8.438550 -3.982630 -34.928280 -28.741865 -35.992680 6.581719 -57.205763 -34.017409 0.741858 -35.920421 -28.464261 4.682307 -2.906626 3.193145 1.144080 -0.571510 0.638250 0.125100 23.977028 39.732327 11.147595 52.063941 23.195222 -12.066976 27.293926 34.543821 2.853814 2.015408 -1.306085 -0.003450 0.309350 -0.223020 -0.316030 
-0.388520 17.596230 -4.644470 -3.741882 17.849490 1.325425 -15.324566 13.142174 3.320382 -0.296845 -4.413310 -24.236329 -2.297592 7.642396 37.976145 -0.315291 6.078447 2.100171 0.991520 0.713160 0.885340 18.187814 -8.924086 4.968948 8.512056 11.798247 -40.415135 5.292938 -2.218482 9.873348 -0.329773 -0.319706 4.026537 0.290130 -0.447060 0.210860 -3.522315 -3.268576 -9.124336 12.788767 -4.740984 36.851114 -2.088060 1.374173 4.010279 3.007071 -1.609592 -17.942590 -11.142331 1.200285 62.543420 7.950740 -3.161620 -34.843350 -28.137029 -35.867826 6.646974 -56.488962 -32.412296 -0.356220 -35.838513 -27.351869 4.196527 -2.894620 3.197396 1.127280 -0.573610 0.666680 0.126080 22.723399 39.028035 10.660779 53.540465 22.782712 -12.186361 27.146865 34.133298 2.580170 2.059873 -1.307752 0.030580 0.287770 -0.248020 -0.307490 
-0.409440 17.630330 -4.657260 -3.659197 18.412575 1.857099 -15.336221 13.129843 3.322990 -0.802124 -4.593976 -24.345904 -1.572765 7.040390 37.108204 -0.380527 5.818524 2.196858 0.986200 0.700540 0.886370 18.182736 -8.894463 5.023715 8.401112 12.006480 -41.399484 5.729776 -2.677048 13.560457 -0.355495 -0.573377 3.929231 0.294270 -0.442120 0.206540 -3.505498 -3.304596 -9.111349 12.577889 -4.840230 36.985072 -1.774926 1.153806 4.055382 2.919850 -1.239075 -17.646344 -10.047501 0.772614 62.077738 7.807030 -2.956660 -34.207730 -27.391882 -35.768311 6.685396 -55.764694 -31.656354 -0.927171 -35.191521 -27.381700 3.972201 -2.908391 3.185133 1.127950 -0.563270 0.653780 0.124000 22.092420 38.586293 10.436383 53.469251 22.187451 -12.537264 27.678690 33.946913 2.529796 2.058324 -1.313254 0.014900 0.286380 -0.244510 -0.319560 
-0.417510 17.660510 -4.672560 -3.441072 18.923938 2.354118 -15.348918 13.117724 3.314902 -1.712342 -4.651653 -24.483260 -0.489582 6.403539 36.409313 -0.413192 5.547048 2.312246 0.988330 0.707910 0.895840 18.183030 -8.864642 5.065103 8.110123 12.196087 -42.284124 5.698189 -3.126050 17.324746 -0.395838 -0.889596 3.824931 0.298540 -0.434270 0.191760 -3.494033 -3.344424 -9.077332 12.450576 -4.983374 37.120041 -1.389316 0.780702 4.069411 2.855133 -1.196328 -16.791076 -9.559204 0.412800 60.642277 7.525330 -2.813370 -34.526590 -26.243246 -34.853957 6.465836 -56.078543 -31.239895 -1.291460 -34.567289 -27.674240 3.805889 -2.923894 3.166359 1.114550 -0.557130 0.646180 0.130620 21.022643 37.538771 10.036684 53.332012 22.049818 -12.582676 27.979887 34.577012 2.664478 2.075476 -1.306205 0.009410 0.302110 -0.258100 -0.317670 
-0.428690 17.687840 -4.677090 -3.464243 19.521491 2.532945 -15.340046 13.098926 3.270708 -2.018445 -4.594442 -24.124120 0.062379 5.956881 35.485913 -0.459557 5.301057 2.385216 1.036060 0.765210 0.930700 18.195717 -8.915349 5.056972 7.944095 12.161334 -42.401745 6.169673 -3.612823 20.072328 -0.465000 -1.241506 3.667903 0.334770 -0.468360 0.214580 -3.539650 -3.249232 -9.023127 12.709177 -5.182550 36.497385 -1.542897 0.322943 5.689002 2.956393 -0.520593 -16.284128 -7.770654 -0.413968 59.415044 6.677880 -2.414350 -34.912020 -24.390005 -35.000686 6.674657 -55.405506 -32.493413 -0.955795 -30.785074 -28.340937 3.235616 -2.916769 3.191828 1.103990 -0.558330 0.665360 0.135570 18.815466 37.009042 9.828885 53.295392 22.833601 -12.956801 26.427642 37.283516 2.562949 2.060087 -1.351776 0.034430 0.268170 -0.284510 -0.323830 
-0.444860 17.701320 -4.679080 -3.622791 19.564926 2.546245 -15.332393 13.080883 3.229525 -1.891073 -4.561160 -23.806629 0.125106 5.790227 34.836625 -0.495641 5.188932 2.417280 1.073360 0.803460 0.965470 18.208875 -8.943584 5.057795 8.283665 12.200557 -42.297375 6.163957 -3.993681 22.592921 -0.522764 -1.570961 3.528975 0.366010 -0.476480 0.233960 -3.566868 -3.190524 -8.989617 12.737475 -5.237633 36.110010 -1.531640 0.058181 7.082470 2.845813 -0.044956 -15.935319 -6.579542 -0.967623 58.007729 6.495230 -2.141310 -35.298110 -23.443211 -35.425896 6.575698 -53.470995 -34.518258 0.409436 -26.787046 -27.382555 2.622170 -2.938489 3.171450 1.090620 -0.549480 0.670400 0.134820 18.003035 36.796821 9.597956 51.974511 23.861857 -12.487516 23.668204 37.998806 2.152079 2.034788 -1.356727 0.047780 0.256300 -0.297580 -0.328360 
-0.461150 17.701310 -4.691900 -3.501076 19.743278 2.840103 -15.332573 13.007539 3.234519 -2.125826 -4.720800 -23.968743 0.319533 5.599248 34.500929 -0.562229 5.128403 2.447171 1.103080 0.830800 0.978610 18.223906 -8.935590 5.084072 8.367146 12.292908 -42.943113 5.544657 -4.259812 25.343377 -0.578231 -1.926569 3.387445 0.412790 -0.455890 0.238100 -3.581841 -3.116771 -8.990722 12.434454 -5.119056 35.451805 -1.352210 -0.180031 8.930391 2.637078 0.421666 -16.007257 -5.261053 -1.378365 56.073703 6.253090 -1.776880 -35.178830 -22.359829 -36.551268 6.744490 -50.873744 -36.926702 1.536709 -22.069405 -27.153145 1.961497 -2.958978 3.125776 1.091240 -0.527850 0.656590 0.153220 17.260413 37.330874 9.475114 49.956439 25.608880 -11.676072 18.832100 37.819342 1.222244 1.966673 -1.351081 0.023010 0.275120 -0.302480 -0.338970 
-0.475700 17.700060 -4.700900 -3.202994 20.497617 2.298099 -15.326679 12.992093 3.248880 -2.406742 -4.964680 -23.402500 0.525687 5.472064 34.844996 -0.607634 5.198342 2.424178 1.124810 0.869010 0.979970 18.230864 -8.993413 5.020030 7.984889 11.951636 -43.084044 4.756028 -4.700174 28.959118 -0.652302 -2.454764 3.200015 0.463370 -0.429530 0.225380 -3.617229 -3.079922 -8.957862 12.104733 -5.631439 35.602029 -1.682343 -0.923466 11.248952 2.438975 0.576543 -16.440363 -4.751416 -1.343815 54.607206 6.321960 -1.530950 -35.617830 -21.632718 -38.216644 6.983144 -45.356837 -39.182514 1.822175 -17.797128 -27.394466 1.548390 -2.984575 3.015818 1.085850 -0.505620 0.638320 0.156610 16.855636 38.402725 9.421578 46.373853 27.846601 -11.137110 13.805098 38.067006 0.350315 1.878975 -1.307904 -0.000790 0.317820 -0.291570 -0.343360 
-0.484510 17.668960 -4.707740 -2.789458 21.939193 2.202192 -15.347047 12.900644 3.356687 -2.918587 -5.739022 -23.869435 1.167472 5.208016 36.341721 -0.568264 5.365010 2.354363 1.168770 0.950380 0.968790 18.226314 -8.985431 4.942111 6.583658 11.488105 -44.114094 5.210299 -5.659333 32.979409 -0.764936 -3.213638 2.921614 0.517760 -0.413690 0.243170 -3.602336 -3.092320 -8.975031 11.650924 -6.003908 35.196357 -1.288051 -1.778050 13.057095 2.133599 0.911682 -16.637304 -3.733627 -1.753799 52.464339 6.171410 -1.544650 -34.931550 -20.078451 -39.487194 7.147700 -40.481918 -41.787802 2.471319 -13.081357 -27.185579 1.039792 -3.021054 2.979655 1.026330 -0.474960 0.628050 0.183600 15.865961 38.991542 9.026900 42.406196 29.894829 -9.841317 9.546088 36.776190 -0.276505 1.841793 -1.313110 0.031720 0.305500 -0.309490 -0.313520 
-0.506840 17.631250 -4.718770 -2.302245 21.684966 1.794716 -15.407413 12.875913 3.427341 -3.328260 -6.308213 -23.977564 1.689318 5.124924 37.846102 -0.556614 5.648390 2.270181 1.159910 0.935190 0.951980 18.188184 -8.869390 4.942377 5.853503 11.508536 -44.925188 5.173941 -6.536530 37.515443 -0.884378 -4.056794 2.636590 0.537730 -0.358400 0.242770 -3.430693 -3.320683 -9.018851 10.204315 -5.256898 35.911874 0.276482 -1.680514 14.008101 1.528640 0.653780 -16.707149 -4.020959 -1.804017 50.736696 6.177740 -1.700740 -34.337350 -17.902135 -40.136091 6.625579 -35.038656 -43.972284 2.506415 -7.441861 -28.097952 0.267082 -3.085980 2.863331 1.009000 -0.437580 0.589970 0.191950 15.016972 39.763212 8.904130 36.757361 31.149257 -8.543631 7.069360 34.773871 -0.211680 1.805042 -1.253243 0.001410 0.341010 -0.286680 -0.311360 
